<svg width="256" height="256" viewBox="0 0 256 256" xmlns="http://www.w3.org/2000/svg">
    <style>
        path {
            fill: #333333;
        }
        @media (prefers-color-scheme: dark) {
            path {
                fill: #FFFFFF;
            }
        }
    </style>
    <path d="M83.334 40.4395L83.4307 66.9297H23.876C23.876 60.7422 23.8115 56.3271 23.6826 53.6846L23.5859 40.6328L83.334 40.4395ZM22.6191 40.6328L23.5859 39.666V40.6328H22.6191ZM83.7207 162.353L83.8174 163.223L83.9141 177.725C83.9141 180.367 83.7852 183.525 83.5273 187.199C83.2695 190.873 83.0439 192.774 82.8506 192.903L81.1104 193.097H45.9189L41.8584 193.483C31.8037 193.483 25.6807 193.354 23.4893 193.097V192.42L23.3926 190.583V186.232C23.3926 173.535 23.5859 162.997 23.9727 154.618L25.0361 80.1748V77.2744L32.5771 77.1777L34.2207 77.2744H37.0244L39.4414 77.3711L40.6982 77.2744H47.6592L49.1094 77.1777L82.0771 77.5645C82.335 77.5 82.5283 77.4678 82.6572 77.4678C82.7861 77.4678 82.8506 77.6611 82.8506 78.0479L82.9473 87.2324C83.0117 93.3555 83.1406 101.573 83.334 111.886C83.5273 122.134 83.624 129.385 83.624 133.639L83.5273 145.724V150.848L83.8174 155.972V158.969C83.8174 159.033 83.7852 159.162 83.7207 159.355V162.353ZM167.445 195.997L159.711 196.48C155.779 196.48 151.912 196.029 148.109 195.127C145.531 195.127 142.051 194.45 137.668 193.097C122.973 189.616 112.016 183.59 104.797 175.018L103.057 172.987C97.4492 165.769 93.8076 156.068 92.1318 143.887L91.8418 141.856C91.584 139.794 91.4551 137.345 91.4551 134.509C91.4551 131.608 92.0029 127.709 93.0986 122.811C97.1592 104.699 105.699 92.1953 118.719 85.2988L131.771 78.3379C141.438 74.8574 153.491 73.1172 167.929 73.1172C173.407 73.1172 178.467 73.8262 183.107 75.2441L185.041 75.8242C184.977 75.8242 184.944 75.792 184.944 75.7275H185.138C206.987 81.5283 221.521 91.1318 228.74 104.538L228.934 105.215C232.156 111.725 234.315 119.008 235.411 127.064L233.188 126.291H172.666L172.183 122.714C171.151 115.302 169.411 110.371 166.962 107.922L165.028 106.762C159.356 107.148 156.166 114.883 155.457 129.965C155.393 132.027 155.296 133.252 155.167 133.639L155.264 136.732L155.554 142.34C155.554 142.791 155.586 143.274 155.65 143.79L156.617 144.757H155.554C155.876 149.591 156.875 153.297 158.551 155.875C160.291 158.453 162.031 159.742 163.771 159.742C167.059 159.742 169.314 157.744 170.539 153.748C171.764 149.752 172.376 146.11 172.376 142.823C177.339 142.565 184.815 142.437 194.806 142.437H198.479L207.761 142.533H217.042L235.701 142.63C233.703 163.319 223.938 177.95 206.407 186.522C205.118 186.974 203.346 187.715 201.09 188.746L197.416 190.486C187.168 194.418 177.79 196.384 169.282 196.384C168.38 196.384 167.768 196.255 167.445 195.997Z"/>
</svg>
