<svg width="95" height="46" viewBox="0 0 95 46" fill="none" xmlns="http://www.w3.org/2000/svg">
    <path fill="#FFFFFF" d="M4.90625 2.16406L16.5312 1.97656C17.5938 1.97656 18.2969 2.21875 18.6406 2.70312C18.9844 3.17188 19.1562 3.75781 19.1562 4.46094C19.1562 7.83594 19.1328 9.6875 19.0859 10.0156C18.1797 10.0469 17.2188 10.0625 16.2031 10.0625C15.1875 10.0625 13.5078 9.96875 11.1641 9.78125C11.0703 16.3125 11.0234 21.8906 11.0234 26.5156C11.0234 31.1406 11.0625 34.7578 11.1406 37.3672L17.9375 37.2734H18.8047C19.1016 37.5703 19.25 38.6875 19.25 40.625L19.2031 42.9688V43.5547L19.25 44.2344C19.25 45.1875 19.0703 45.6875 18.7109 45.7344L0.921875 45.9453L0.617188 45.6172C0.226562 45.2109 0.03125 44.5938 0.03125 43.7656L0.078125 42.4297V40.625L0.101562 39.9922V36.8516C0.101562 21.4922 0.28125 9.97656 0.640625 2.30469C0.640625 2.17969 0.875 2.11719 1.34375 2.11719L4.01562 2.16406H4.90625ZM19.0859 10.0391L19.1328 10.0156C19.1172 10.0313 19.1016 10.0391 19.0859 10.0391ZM36.2188 1.01562L36.2422 7.4375H21.8047C21.8047 5.9375 21.7891 4.86719 21.7578 4.22656L21.7344 1.0625L36.2188 1.01562ZM21.5 1.0625L21.7344 0.828125V1.0625H21.5ZM36.3125 30.5703L36.3359 30.7812L36.3594 34.2969C36.3594 34.9375 36.3281 35.7031 36.2656 36.5938C36.2031 37.4844 36.1484 37.9453 36.1016 37.9766L35.6797 38.0234H27.1484L26.1641 38.1172C23.7266 38.1172 22.2422 38.0859 21.7109 38.0234V37.8594L21.6875 37.4141V36.3594C21.6875 33.2812 21.7344 30.7266 21.8281 28.6953L22.0859 10.6484V9.94531L23.9141 9.92188L24.3125 9.94531H24.9922L25.5781 9.96875L25.8828 9.94531H27.5703L27.9219 9.92188L35.9141 10.0156C35.9766 10 36.0234 9.99219 36.0547 9.99219C36.0859 9.99219 36.1016 10.0391 36.1016 10.1328L36.125 12.3594C36.1406 13.8437 36.1719 15.8359 36.2188 18.3359C36.2656 20.8203 36.2891 22.5781 36.2891 23.6094L36.2656 26.5391V27.7812L36.3359 29.0234V29.75C36.3359 29.7656 36.3281 29.7969 36.3125 29.8438V30.5703ZM56.6094 38.7266L54.7344 38.8438C53.7812 38.8438 52.8438 38.7344 51.9219 38.5156C51.2969 38.5156 50.4531 38.3516 49.3906 38.0234C45.8281 37.1797 43.1719 35.7188 41.4219 33.6406L41 33.1484C39.6406 31.3984 38.7578 29.0469 38.3516 26.0938L38.2812 25.6016C38.2188 25.1016 38.1875 24.5078 38.1875 23.8203C38.1875 23.1172 38.3203 22.1719 38.5859 20.9844C39.5703 16.5938 41.6406 13.5625 44.7969 11.8906L47.9609 10.2031C50.3047 9.35938 53.2266 8.9375 56.7266 8.9375C58.0547 8.9375 59.2812 9.10937 60.4062 9.45312L60.875 9.59375C60.8594 9.59375 60.8516 9.58594 60.8516 9.57031H60.8984C66.1953 10.9766 69.7188 13.3047 71.4688 16.5547L71.5156 16.7188C72.2969 18.2969 72.8203 20.0625 73.0859 22.0156L72.5469 21.8281H57.875L57.7578 20.9609C57.5078 19.1641 57.0859 17.9688 56.4922 17.375L56.0234 17.0938C54.6484 17.1875 53.875 19.0625 53.7031 22.7188C53.6875 23.2188 53.6641 23.5156 53.6328 23.6094L53.6562 24.3594L53.7266 25.7188C53.7266 25.8281 53.7344 25.9453 53.75 26.0703L53.9844 26.3047H53.7266C53.8047 27.4766 54.0469 28.375 54.4531 29C54.875 29.625 55.2969 29.9375 55.7188 29.9375C56.5156 29.9375 57.0625 29.4531 57.3594 28.4844C57.6562 27.5156 57.8047 26.6328 57.8047 25.8359C59.0078 25.7734 60.8203 25.7422 63.2422 25.7422H64.1328L66.3828 25.7656H68.6328L73.1562 25.7891C72.6719 30.8047 70.3047 34.3516 66.0547 36.4297C65.7422 36.5391 65.3125 36.7188 64.7656 36.9688L63.875 37.3906C61.3906 38.3438 59.1172 38.8203 57.0547 38.8203C56.8359 38.8203 56.6875 38.7891 56.6094 38.7266ZM94.1094 27.4062L93.875 43.0156V44.8672C93.875 45.1953 93.7891 45.4531 93.6172 45.6406C92.5547 45.7031 91.4062 45.7344 90.1719 45.7344H89.3984L82.2969 45.6641C78.3438 45.6172 76.1953 45.5938 75.8516 45.5938C75.7266 45.5625 75.6484 45.3906 75.6172 45.0781V45.0078C75.5391 42.8203 75.5 41.1016 75.5 39.8516C75.5 38.6016 75.5391 37.8984 75.6172 37.7422C75.7109 37.5703 75.8828 37.4844 76.1328 37.4844H76.8828C79.9766 37.4844 82.2031 37.4609 83.5625 37.4141V34.7188C83.5625 29.2656 83.4531 21.1953 83.2344 10.5078H79.7188L75.8281 10.5781C75.5469 10.2969 75.375 10.1016 75.3125 9.99219V5.32812L75.3359 4.08594V3.33594L75.3125 3.03125C75.3125 2.39063 75.4062 1.96094 75.5938 1.74219H77.5156L81.9688 1.78906L85.2969 1.76562H86.9375L88.6484 1.74219L94.4375 1.97656V3.64062L94.4141 4.78906V8.89062C94.4141 11.2812 94.3438 16.0781 94.2031 23.2812L94.1094 27.4062ZM94.4375 1.97656V1.74219L94.6719 1.97656H94.4375Z"/>
</svg>
