<svg xmlns="http://www.w3.org/2000/svg">
    <symbol id="account" viewBox="0 -960 960 960">
        <path style="fill: var(--icon-color)" d="M234-276q51-39 114-61.5T480-360q69 0 132 22.5T726-276q35-41 54.5-93T800-480q0-133-93.5-226.5T480-800q-133 0-226.5 93.5T160-480q0 59 19.5 111t54.5 93Zm246-164q-59 0-99.5-40.5T340-580q0-59 40.5-99.5T480-720q59 0 99.5 40.5T620-580q0 59-40.5 99.5T480-440Zm0 360q-83 0-156-31.5T197-197q-54-54-85.5-127T80-480q0-83 31.5-156T197-763q54-54 127-85.5T480-880q83 0 156 31.5T763-763q54 54 85.5 127T880-480q0 83-31.5 156T763-197q-54 54-127 85.5T480-80Zm0-80q53 0 100-15.5t86-44.5q-39-29-86-44.5T480-280q-53 0-100 15.5T294-220q39 29 86 44.5T480-160Zm0-360q26 0 43-17t17-43q0-26-17-43t-43-17q-26 0-43 17t-17 43q0 26 17 43t43 17Zm0-60Zm0 360Z"/>
    </symbol>
    <symbol id="button" viewBox="0 -960 960 960">
        <path style="fill: var(--icon-color)" d="M160-240q-33 0-56.5-23.5T80-320v-320q0-33 23.5-56.5T160-720h640q33 0 56.5 23.5T880-640v320q0 33-23.5 56.5T800-240H160Zm0-80h640v-320H160v320Zm130-40h60v-90h90v-60h-90v-90h-60v90h-90v60h90v90Zm-130 40v-320 320Z"/>
    </symbol>
    <symbol id="cards" viewBox="0 -960 960 960">
        <path style="fill: var(--icon-color)" d="M240-500v-220h220v220H240Zm0 260v-220h220v220H240Zm260-260v-220h220v220H500Zm0 260v-220h220v220H500ZM320-580h60v-60h-60v60Zm260 0h60v-60h-60v60ZM320-320h60v-60h-60v60Zm260 0h60v-60h-60v60ZM380-580Zm200 0Zm0 200Zm-200 0ZM200-120q-33 0-56.5-23.5T120-200v-560q0-33 23.5-56.5T200-840h560q33 0 56.5 23.5T840-760v560q0 33-23.5 56.5T760-120H200Zm0-80h560v-560H200v560Z"/>
    </symbol>
    <symbol id="close" viewBox="0 -960 960 960">
        <path style="fill: var(--icon-color)" d="m256-200-56-56 224-224-224-224 56-56 224 224 224-224 56 56-224 224 224 224-56 56-224-224-224 224Z"/>
    </symbol>
    <symbol id="code" viewBox="0 -960 960 960">
        <path style="fill: var(--icon-color)" d="M320-240 80-480l240-240 57 57-184 184 183 183-56 56Zm320 0-57-57 184-184-183-183 56-56 240 240-240 240Z"/>
    </symbol>
    <symbol id="dialog" viewBox="0 -960 960 960">
        <path style="fill: var(--icon-color)" d="M320-320h320v-320H320v320ZM200-120q-33 0-56.5-23.5T120-200v-560q0-33 23.5-56.5T200-840h560q33 0 56.5 23.5T840-760v560q0 33-23.5 56.5T760-120H200Zm0-80h560v-560H200v560Zm0-560v560-560Z"/>
    </symbol>
    <symbol id="image" viewBox="0 -960 960 960">
        <path style="fill: var(--icon-color)" d="M200-120q-33 0-56.5-23.5T120-200v-560q0-33 23.5-56.5T200-840h560q33 0 56.5 23.5T840-760v560q0 33-23.5 56.5T760-120H200Zm0-80h560v-560H200v560Zm40-80h480L570-480 450-320l-90-120-120 160Zm-40 80v-560 560Z"/>
    </symbol>
    <symbol id="list" viewBox="0 -960 960 960">
        <path style="fill: var(--icon-color)" d="M280-600v-80h560v80H280Zm0 160v-80h560v80H280Zm0 160v-80h560v80H280ZM160-600q-17 0-28.5-11.5T120-640q0-17 11.5-28.5T160-680q17 0 28.5 11.5T200-640q0 17-11.5 28.5T160-600Zm0 160q-17 0-28.5-11.5T120-480q0-17 11.5-28.5T160-520q17 0 28.5 11.5T200-480q0 17-11.5 28.5T160-440Zm0 160q-17 0-28.5-11.5T120-320q0-17 11.5-28.5T160-360q17 0 28.5 11.5T200-320q0 17-11.5 28.5T160-280Z"/>
    </symbol>
    <symbol id="log-out" viewBox="0 -960 960 960">
        <path style="fill: var(--icon-color)" d="M200-120q-33 0-56.5-23.5T120-200v-560q0-33 23.5-56.5T200-840h280v80H200v560h280v80H200Zm440-160-55-58 102-102H360v-80h327L585-622l55-58 200 200-200 200Z"/>
    </symbol>
    <symbol id="logo" viewBox="0 0 95 46">
        <path style="fill: var(--icon-color)" d="M4.90625 2.16406L16.5312 1.97656C17.5938 1.97656 18.2969 2.21875 18.6406 2.70312C18.9844 3.17188 19.1562 3.75781 19.1562 4.46094C19.1562 7.83594 19.1328 9.6875 19.0859 10.0156C18.1797 10.0469 17.2188 10.0625 16.2031 10.0625C15.1875 10.0625 13.5078 9.96875 11.1641 9.78125C11.0703 16.3125 11.0234 21.8906 11.0234 26.5156C11.0234 31.1406 11.0625 34.7578 11.1406 37.3672L17.9375 37.2734H18.8047C19.1016 37.5703 19.25 38.6875 19.25 40.625L19.2031 42.9688V43.5547L19.25 44.2344C19.25 45.1875 19.0703 45.6875 18.7109 45.7344L0.921875 45.9453L0.617188 45.6172C0.226562 45.2109 0.03125 44.5938 0.03125 43.7656L0.078125 42.4297V40.625L0.101562 39.9922V36.8516C0.101562 21.4922 0.28125 9.97656 0.640625 2.30469C0.640625 2.17969 0.875 2.11719 1.34375 2.11719L4.01562 2.16406H4.90625ZM19.0859 10.0391L19.1328 10.0156C19.1172 10.0313 19.1016 10.0391 19.0859 10.0391ZM36.2188 1.01562L36.2422 7.4375H21.8047C21.8047 5.9375 21.7891 4.86719 21.7578 4.22656L21.7344 1.0625L36.2188 1.01562ZM21.5 1.0625L21.7344 0.828125V1.0625H21.5ZM36.3125 30.5703L36.3359 30.7812L36.3594 34.2969C36.3594 34.9375 36.3281 35.7031 36.2656 36.5938C36.2031 37.4844 36.1484 37.9453 36.1016 37.9766L35.6797 38.0234H27.1484L26.1641 38.1172C23.7266 38.1172 22.2422 38.0859 21.7109 38.0234V37.8594L21.6875 37.4141V36.3594C21.6875 33.2812 21.7344 30.7266 21.8281 28.6953L22.0859 10.6484V9.94531L23.9141 9.92188L24.3125 9.94531H24.9922L25.5781 9.96875L25.8828 9.94531H27.5703L27.9219 9.92188L35.9141 10.0156C35.9766 10 36.0234 9.99219 36.0547 9.99219C36.0859 9.99219 36.1016 10.0391 36.1016 10.1328L36.125 12.3594C36.1406 13.8437 36.1719 15.8359 36.2188 18.3359C36.2656 20.8203 36.2891 22.5781 36.2891 23.6094L36.2656 26.5391V27.7812L36.3359 29.0234V29.75C36.3359 29.7656 36.3281 29.7969 36.3125 29.8438V30.5703ZM56.6094 38.7266L54.7344 38.8438C53.7812 38.8438 52.8438 38.7344 51.9219 38.5156C51.2969 38.5156 50.4531 38.3516 49.3906 38.0234C45.8281 37.1797 43.1719 35.7188 41.4219 33.6406L41 33.1484C39.6406 31.3984 38.7578 29.0469 38.3516 26.0938L38.2812 25.6016C38.2188 25.1016 38.1875 24.5078 38.1875 23.8203C38.1875 23.1172 38.3203 22.1719 38.5859 20.9844C39.5703 16.5938 41.6406 13.5625 44.7969 11.8906L47.9609 10.2031C50.3047 9.35938 53.2266 8.9375 56.7266 8.9375C58.0547 8.9375 59.2812 9.10937 60.4062 9.45312L60.875 9.59375C60.8594 9.59375 60.8516 9.58594 60.8516 9.57031H60.8984C66.1953 10.9766 69.7188 13.3047 71.4688 16.5547L71.5156 16.7188C72.2969 18.2969 72.8203 20.0625 73.0859 22.0156L72.5469 21.8281H57.875L57.7578 20.9609C57.5078 19.1641 57.0859 17.9688 56.4922 17.375L56.0234 17.0938C54.6484 17.1875 53.875 19.0625 53.7031 22.7188C53.6875 23.2188 53.6641 23.5156 53.6328 23.6094L53.6562 24.3594L53.7266 25.7188C53.7266 25.8281 53.7344 25.9453 53.75 26.0703L53.9844 26.3047H53.7266C53.8047 27.4766 54.0469 28.375 54.4531 29C54.875 29.625 55.2969 29.9375 55.7188 29.9375C56.5156 29.9375 57.0625 29.4531 57.3594 28.4844C57.6562 27.5156 57.8047 26.6328 57.8047 25.8359C59.0078 25.7734 60.8203 25.7422 63.2422 25.7422H64.1328L66.3828 25.7656H68.6328L73.1562 25.7891C72.6719 30.8047 70.3047 34.3516 66.0547 36.4297C65.7422 36.5391 65.3125 36.7188 64.7656 36.9688L63.875 37.3906C61.3906 38.3438 59.1172 38.8203 57.0547 38.8203C56.8359 38.8203 56.6875 38.7891 56.6094 38.7266ZM94.1094 27.4062L93.875 43.0156V44.8672C93.875 45.1953 93.7891 45.4531 93.6172 45.6406C92.5547 45.7031 91.4062 45.7344 90.1719 45.7344H89.3984L82.2969 45.6641C78.3438 45.6172 76.1953 45.5938 75.8516 45.5938C75.7266 45.5625 75.6484 45.3906 75.6172 45.0781V45.0078C75.5391 42.8203 75.5 41.1016 75.5 39.8516C75.5 38.6016 75.5391 37.8984 75.6172 37.7422C75.7109 37.5703 75.8828 37.4844 76.1328 37.4844H76.8828C79.9766 37.4844 82.2031 37.4609 83.5625 37.4141V34.7188C83.5625 29.2656 83.4531 21.1953 83.2344 10.5078H79.7188L75.8281 10.5781C75.5469 10.2969 75.375 10.1016 75.3125 9.99219V5.32812L75.3359 4.08594V3.33594L75.3125 3.03125C75.3125 2.39063 75.4062 1.96094 75.5938 1.74219H77.5156L81.9688 1.78906L85.2969 1.76562H86.9375L88.6484 1.74219L94.4375 1.97656V3.64062L94.4141 4.78906V8.89062C94.4141 11.2812 94.3438 16.0781 94.2031 23.2812L94.1094 27.4062ZM94.4375 1.97656V1.74219L94.6719 1.97656H94.4375Z"/>
    </symbol>
    <symbol id="menu" viewBox="0 -960 960 960">
        <path style="fill: var(--icon-color)" d="M120-240v-80h720v80H120Zm0-200v-80h720v80H120Zm0-200v-80h720v80H120Z"/>
    </symbol>
    <symbol id="palette" viewBox="0 -960 960 960">
        <path style="fill: var(--icon-color)" d="M480-80q-82 0-155-31.5t-127.5-86Q143-252 111.5-325T80-480q0-83 32.5-156t88-127Q256-817 330-848.5T488-880q80 0 151 27.5t124.5 76q53.5 48.5 85 115T880-518q0 115-70 176.5T640-280h-74q-9 0-12.5 5t-3.5 11q0 12 15 34.5t15 51.5q0 50-27.5 74T480-80Zm0-400Zm-220 40q26 0 43-17t17-43q0-26-17-43t-43-17q-26 0-43 17t-17 43q0 26 17 43t43 17Zm120-160q26 0 43-17t17-43q0-26-17-43t-43-17q-26 0-43 17t-17 43q0 26 17 43t43 17Zm200 0q26 0 43-17t17-43q0-26-17-43t-43-17q-26 0-43 17t-17 43q0 26 17 43t43 17Zm120 160q26 0 43-17t17-43q0-26-17-43t-43-17q-26 0-43 17t-17 43q0 26 17 43t43 17ZM480-160q9 0 14.5-5t5.5-13q0-14-15-33t-15-57q0-42 29-67t71-25h70q66 0 113-38.5T800-518q0-121-92.5-201.5T488-800q-136 0-232 93t-96 227q0 133 93.5 226.5T480-160Z"/>
    </symbol>
    <symbol id="table" viewBox="0 -960 960 960">
        <path style="fill: var(--icon-color)" d="M120-120v-720h720v720H120Zm80-480h560v-160H200v160Zm213 200h134v-120H413v120Zm0 200h134v-120H413v120ZM200-400h133v-120H200v120Zm427 0h133v-120H627v120ZM200-200h133v-120H200v120Zm427 0h133v-120H627v120Z"/>
    </symbol>
    <symbol id="text" viewBox="0 -960 960 960">
        <path style="fill: var(--icon-color)" d="M420-160v-520H200v-120h560v120H540v520H420Z"/>
    </symbol>
    <symbol id="toggle" viewBox="0 -960 960 960">
        <path style="fill: var(--icon-color)" d="M280-240q-100 0-170-70T40-480q0-100 70-170t170-70h400q100 0 170 70t70 170q0 100-70 170t-170 70H280Zm0-80h400q66 0 113-47t47-113q0-66-47-113t-113-47H280q-66 0-113 47t-47 113q0 66 47 113t113 47Zm400-40q50 0 85-35t35-85q0-50-35-85t-85-35q-50 0-85 35t-35 85q0 50 35 85t85 35ZM480-480Z"/>
    </symbol>
    <symbol id="tooltip" viewBox="0 -960 960 960">
        <path style="fill: var(--icon-color)" d="M480-80 374-240H160q-33 0-56.5-23.5T80-320v-480q0-33 23.5-56.5T160-880h640q33 0 56.5 23.5T880-800v480q0 33-23.5 56.5T800-240H586L480-80ZM160-320h640v-480H160v480Zm0 0v-480 480Z"/>
    </symbol>
    <symbol id="flash" viewBox="0 -960 960 960">
        <path style="fill: var(--icon-color)" d="m480-336 128-184H494l80-280H360v320h120v144ZM400-80v-320H280v-480h400l-80 280h160L400-80Zm80-400H360h120Z"/>
    </symbol>
</svg>
