<svg xmlns="http://www.w3.org/2000/svg">
    <symbol id="account" viewBox="0 -960 960 960">
        <path style="fill: var(--icon-color)" d="M234-276q51-39 114-61.5T480-360q69 0 132 22.5T726-276q35-41 54.5-93T800-480q0-133-93.5-226.5T480-800q-133 0-226.5 93.5T160-480q0 59 19.5 111t54.5 93Zm246-164q-59 0-99.5-40.5T340-580q0-59 40.5-99.5T480-720q59 0 99.5 40.5T620-580q0 59-40.5 99.5T480-440Zm0 360q-83 0-156-31.5T197-197q-54-54-85.5-127T80-480q0-83 31.5-156T197-763q54-54 127-85.5T480-880q83 0 156 31.5T763-763q54 54 85.5 127T880-480q0 83-31.5 156T763-197q-54 54-127 85.5T480-80Zm0-80q53 0 100-15.5t86-44.5q-39-29-86-44.5T480-280q-53 0-100 15.5T294-220q39 29 86 44.5T480-160Zm0-360q26 0 43-17t17-43q0-26-17-43t-43-17q-26 0-43 17t-17 43q0 26 17 43t43 17Zm0-60Zm0 360Z"/>
    </symbol>
    <symbol id="button" viewBox="0 -960 960 960">
        <path style="fill: var(--icon-color)" d="M160-240q-33 0-56.5-23.5T80-320v-320q0-33 23.5-56.5T160-720h640q33 0 56.5 23.5T880-640v320q0 33-23.5 56.5T800-240H160Zm0-80h640v-320H160v320Zm130-40h60v-90h90v-60h-90v-90h-60v90h-90v60h90v90Zm-130 40v-320 320Z"/>
    </symbol>
    <symbol id="cards" viewBox="0 -960 960 960">
        <path style="fill: var(--icon-color)" d="M240-500v-220h220v220H240Zm0 260v-220h220v220H240Zm260-260v-220h220v220H500Zm0 260v-220h220v220H500ZM320-580h60v-60h-60v60Zm260 0h60v-60h-60v60ZM320-320h60v-60h-60v60Zm260 0h60v-60h-60v60ZM380-580Zm200 0Zm0 200Zm-200 0ZM200-120q-33 0-56.5-23.5T120-200v-560q0-33 23.5-56.5T200-840h560q33 0 56.5 23.5T840-760v560q0 33-23.5 56.5T760-120H200Zm0-80h560v-560H200v560Z"/>
    </symbol>
    <symbol id="close" viewBox="0 -960 960 960">
        <path style="fill: var(--icon-color)" d="m256-200-56-56 224-224-224-224 56-56 224 224 224-224 56 56-224 224 224 224-56 56-224-224-224 224Z"/>
    </symbol>
    <symbol id="dialog" viewBox="0 -960 960 960">
        <path style="fill: var(--icon-color)" d="M320-320h320v-320H320v320ZM200-120q-33 0-56.5-23.5T120-200v-560q0-33 23.5-56.5T200-840h560q33 0 56.5 23.5T840-760v560q0 33-23.5 56.5T760-120H200Zm0-80h560v-560H200v560Zm0-560v560-560Z"/>
    </symbol>
    <symbol id="list" viewBox="0 -960 960 960">
        <path style="fill: var(--icon-color)" d="M280-600v-80h560v80H280Zm0 160v-80h560v80H280Zm0 160v-80h560v80H280ZM160-600q-17 0-28.5-11.5T120-640q0-17 11.5-28.5T160-680q17 0 28.5 11.5T200-640q0 17-11.5 28.5T160-600Zm0 160q-17 0-28.5-11.5T120-480q0-17 11.5-28.5T160-520q17 0 28.5 11.5T200-480q0 17-11.5 28.5T160-440Zm0 160q-17 0-28.5-11.5T120-320q0-17 11.5-28.5T160-360q17 0 28.5 11.5T200-320q0 17-11.5 28.5T160-280Z"/>
    </symbol>
    <symbol id="log-out" viewBox="0 -960 960 960">
        <path style="fill: var(--icon-color)" d="M200-120q-33 0-56.5-23.5T120-200v-560q0-33 23.5-56.5T200-840h280v80H200v560h280v80H200Zm440-160-55-58 102-102H360v-80h327L585-622l55-58 200 200-200 200Z"/>
    </symbol>
    <symbol id="logo" viewBox="0 -960 960 960">
        <path style="fill: var(--icon-color)" d="M480-80q-83 0-156-31.5T197-197q-54-54-85.5-127T80-480q0-83 31.5-156T197-763q54-54 127-85.5T480-880q83 0 156 31.5T763-763q54 54 85.5 127T880-480q0 83-31.5 156T763-197q-54 54-127 85.5T480-80Zm-40-82v-78q-33 0-56.5-23.5T360-320v-40L168-552q-3 18-5.5 36t-2.5 36q0 121 79.5 212T440-162Zm276-102q20-22 36-47.5t26.5-53q10.5-27.5 16-56.5t5.5-59q0-98-54.5-179T600-776v16q0 33-23.5 56.5T520-680h-80v80q0 17-11.5 28.5T400-560h-80v80h240q17 0 28.5 11.5T600-440v120h40q26 0 47 15.5t29 40.5Z"/>
    </symbol>
    <symbol id="menu" viewBox="0 -960 960 960">
        <path style="fill: var(--icon-color)" d="M120-240v-80h720v80H120Zm0-200v-80h720v80H120Zm0-200v-80h720v80H120Z"/>
    </symbol>
    <symbol id="person" viewBox="0 -960 960 960">
        <path style="fill: var(--icon-color)" d="M480-480q-66 0-113-47t-47-113q0-66 47-113t113-47q66 0 113 47t47 113q0 66-47 113t-113 47ZM160-160v-112q0-34 17.5-62.5T224-378q62-31 126-46.5T480-440q66 0 130 15.5T736-378q29 15 46.5 43.5T800-272v112H160Zm80-80h480v-32q0-11-5.5-20T700-306q-54-27-109-40.5T480-360q-56 0-111 13.5T260-306q-9 5-14.5 14t-5.5 20v32Zm240-320q33 0 56.5-23.5T560-640q0-33-23.5-56.5T480-720q-33 0-56.5 23.5T400-640q0 33 23.5 56.5T480-560Zm0-80Zm0 400Z"/>
    </symbol>
    <symbol id="settings" viewBox="0 -960 960 960">
        <path style="fill: var(--icon-color)" d="m370-80-16-128q-13-5-24.5-12T307-235l-119 50L78-375l103-78q-1-7-1-13.5v-27q0-6.5 1-13.5L78-585l110-190 119 50q11-8 23-15t24-12l16-128h220l16 128q13 5 24.5 12t22.5 15l119-50 110 190-103 78q1 7 1 13.5v27q0 6.5-2 13.5l103 78-110 190-118-50q-11 8-23 15t-24 12L590-80H370Zm70-80h79l14-106q31-8 57.5-23.5T639-327l99 41 39-68-86-65q5-14 7-29.5t2-31.5q0-16-2-31.5t-7-29.5l86-65-39-68-99 42q-22-23-48.5-38.5T533-694l-13-106h-79l-14 106q-31 8-57.5 23.5T321-633l-99-41-39 68 86 64q-5 15-7 30t-2 32q0 16 2 31t7 30l-86 65 39 68 99-42q22 23 48.5 38.5T427-266l13 106Zm42-180q58 0 99-41t41-99q0-58-41-99t-99-41q-59 0-99.5 41T342-480q0 58 40.5 99t99.5 41Zm-2-140Z"/>
    </symbol>
    <symbol id="table" viewBox="0 -960 960 960">
        <path style="fill: var(--icon-color)" d="M120-120v-720h720v720H120Zm80-480h560v-160H200v160Zm213 200h134v-120H413v120Zm0 200h134v-120H413v120ZM200-400h133v-120H200v120Zm427 0h133v-120H627v120ZM200-200h133v-120H200v120Zm427 0h133v-120H627v120Z"/>
    </symbol>
    <symbol id="text" viewBox="0 -960 960 960">
        <path style="fill: var(--icon-color)" d="M420-160v-520H200v-120h560v120H540v520H420Z"/>
    </symbol>
    <symbol id="tooltip" viewBox="0 -960 960 960">
        <path style="fill: var(--icon-color)" d="M480-80 374-240H160q-33 0-56.5-23.5T80-320v-480q0-33 23.5-56.5T160-880h640q33 0 56.5 23.5T880-800v480q0 33-23.5 56.5T800-240H586L480-80ZM160-320h640v-480H160v480Zm0 0v-480 480Z"/>
    </symbol>
</svg>
